<svg width="501" height="279" viewBox="0 0 501 279" fill="none" xmlns="http://www.w3.org/2000/svg">
<g filter="url(#filter0_d_1_15)">
<path d="M265.5 16.5L491.5 133L265.5 249.5L239.75 264L214 249.5L1.5 133L214 16.5L239.75 0L265.5 16.5ZM225.495 213.606L231.787 217.056L231.972 217.157L232.154 217.26L239.75 221.536L247.94 216.925L260.054 210.68C256.359 209.545 252.987 207.247 250.538 203.881C244.529 195.618 246.356 184.048 254.619 178.038L317.28 132.466L273.287 98.0703L225.495 213.606ZM378.72 133.534L303.283 188.396L410.747 133L314.722 83.5L378.72 133.534ZM78.4658 133L171.745 184.139L105.104 133.525L161.511 87.4717L78.4658 133ZM232.896 48.3359L224.235 53.084C225.742 54.085 227.126 55.3253 228.33 56.7998C234.792 64.7142 233.614 76.3683 225.7 82.8301L164.895 132.474L206.078 163.752L252.535 51.4434L247.002 48.5908L239.75 43.9443L232.896 48.3359Z" fill="#2C2C2C"/>
<path d="M265.5 16.5L491.5 133L265.5 249.5L239.75 264L240.208 178.038L239.75 132.466V0L265.5 16.5ZM240.208 178.038L239.979 221.019L260.054 210.68C256.359 209.545 252.987 207.247 250.538 203.881C244.529 195.618 246.356 184.048 254.619 178.038L317.28 132.466L273.287 98.0703L240.208 178.038ZM378.72 133.534L303.283 188.396L410.747 133L314.722 83.5L378.72 133.534Z" fill="#62F142"/>
</g>
<defs>
<filter id="filter0_d_1_15" x="0" y="0" width="501" height="278.5" filterUnits="userSpaceOnUse" color-interpolation-filters="sRGB">
<feFlood flood-opacity="0" result="BackgroundImageFix"/>
<feColorMatrix in="SourceAlpha" type="matrix" values="0 0 0 0 0 0 0 0 0 0 0 0 0 0 0 0 0 0 127 0" result="hardAlpha"/>
<feOffset dx="4" dy="9"/>
<feGaussianBlur stdDeviation="2.75"/>
<feComposite in2="hardAlpha" operator="out"/>
<feColorMatrix type="matrix" values="0 0 0 0 0.75 0 0 0 0 0.7625 0 0 0 0 1 0 0 0 0.25 0"/>
<feBlend mode="normal" in2="BackgroundImageFix" result="effect1_dropShadow_1_15"/>
<feBlend mode="normal" in="SourceGraphic" in2="effect1_dropShadow_1_15" result="shape"/>
</filter>
</defs>
</svg>
